<svg xmlns="http://www.w3.org/2000/svg" width="220" height="220" viewBox="0 0 220 220">
  <g fill="none" stroke="#b8a98f" stroke-opacity="0.32" stroke-width="1.1" stroke-linecap="round" stroke-linejoin="round">
    <path d="M22 22 q-6 0 -6 6 v10 q0 6 6 6 h16 q6 0 6 -6 v-10 q0 -6 -6 -6 z" />
    <circle cx="24" cy="34" r="1" />
    <circle cx="30" cy="34" r="1" />
    <circle cx="36" cy="34" r="1" />
    <path d="M188 20 l3 6 l7 1 l-5 5 l1 7 l-6 -3 l-6 3 l1 -7 l-5 -5 l7 -1 z" />
    <path d="M110 56 l-5 -5 q-6 -6 0 -12 q5 -5 10 0 l0 0 q5 -5 10 0 q6 6 0 12 z" />
    <rect x="32" y="92" width="22" height="16" rx="3" />
    <circle cx="43" cy="100" r="3.5" />
    <path d="M30 92 l4 -4 h8 l3 4" />
    <path d="M170 100 q-4 0 -4 4 v20 q0 4 4 4 h22 q4 0 4 -4 v-20 q0 -4 -4 -4 z" />
    <path d="M174 108 h14 M174 114 h10" />
    <path d="M86 124 q0 4 -4 4 t-4 -4 t4 -4 t4 4 v-22 l16 -4 v22 q0 4 -4 4 t-4 -4 t4 -4 t4 4 m-16 -18 l16 -4" />
    <path d="M28 158 l16 0 l-2 18 q-1 4 -5 4 h-2 q-4 0 -5 -4 z M30 158 q0 -8 8 -8 t8 8" />
    <path d="M120 170 l16 -28 l16 28 z M132 158 h8 M134 164 h4" />
    <ellipse cx="180" cy="170" rx="8" ry="10" />
    <path d="M180 180 l0 14 M178 194 l4 0" />
    <path d="M58 200 q0 -6 6 -6 h18 q6 0 6 6 v6 q0 6 -6 6 h-18 q-6 0 -6 -6 z" />
    <circle cx="64" cy="206" r="1" />
    <circle cx="70" cy="206" r="1" />
    <circle cx="76" cy="206" r="1" />
  </g>
</svg>
